<svg width="24" height="12" viewBox="0 0 24 12" fill="none" xmlns="http://www.w3.org/2000/svg">
<g id="&#240;&#159;&#166;&#134; icon &#34;eye closed&#34;">
<path id="Vector" d="M23.8722 7.85496C23.9328 7.96334 23.9721 8.08298 23.9879 8.20705C24.0037 8.33113 23.9957 8.45721 23.9644 8.57809C23.933 8.69897 23.8789 8.81229 23.8052 8.91158C23.7314 9.01087 23.6395 9.09418 23.5345 9.15675C23.4296 9.21933 23.3138 9.25995 23.1937 9.27629C23.0736 9.29262 22.9515 9.28437 22.8345 9.25198C22.7175 9.21959 22.6078 9.16371 22.5116 9.08753C22.4155 9.01135 22.3349 8.91636 22.2743 8.80798L20.1543 5.01515C18.9053 5.87924 17.5318 6.53373 16.0847 6.95435L16.7551 10.8813C16.7976 11.1302 16.7426 11.3864 16.6023 11.5935C16.4619 11.8005 16.2477 11.9415 16.0068 11.9855C15.9535 11.9951 15.8995 12 15.8454 12C15.6286 11.9997 15.419 11.9206 15.253 11.7766C15.0871 11.6326 14.9755 11.4329 14.9378 11.2124L14.2784 7.34942C12.7684 7.57729 11.2343 7.57674 9.7245 7.34779L9.06516 11.2108C9.0275 11.4312 8.91593 11.631 8.75001 11.775C8.58408 11.919 8.37438 11.9982 8.15765 11.9985C8.10358 11.9985 8.04962 11.9936 7.99637 11.9839C7.7554 11.94 7.54117 11.7991 7.40081 11.592C7.26044 11.385 7.20544 11.1288 7.24788 10.8799L7.91844 6.95132C6.47311 6.53004 5.10133 5.87542 3.85386 5.01171L1.7215 8.82683C1.66092 8.9352 1.58027 9.0302 1.48415 9.10638C1.38803 9.18256 1.27833 9.23844 1.1613 9.27082C1.04428 9.30321 0.922226 9.31147 0.802111 9.29513C0.681997 9.27879 0.566173 9.23818 0.461254 9.1756C0.356336 9.11302 0.264376 9.02971 0.190627 8.93043C0.116877 8.83114 0.0627813 8.71782 0.0314283 8.59694C7.53623e-05 8.47605 -0.00792082 8.34998 0.00789618 8.2259C0.0237132 8.10182 0.0630336 7.98218 0.123613 7.8738L2.37215 3.85086C1.5879 3.15369 0.866761 2.38419 0.217652 1.55189C0.0638849 1.35529 -0.00797732 1.10364 0.0178745 0.852306C0.0437263 0.600972 0.165174 0.37054 0.355502 0.211702C0.545829 0.0528648 0.789445 -0.021367 1.03276 0.00533717C1.27607 0.0320413 1.49915 0.157493 1.65291 0.354096C2.37339 1.28018 3.19562 2.11662 4.10307 2.84659C4.1103 2.85194 4.11692 2.85782 4.12396 2.86334C6.37568 4.67292 9.15385 5.64231 12.0066 5.61387C14.8587 5.64229 17.6362 4.67335 19.8877 2.86456C19.8937 2.85985 19.8994 2.85485 19.9056 2.85031C20.8148 2.11945 21.6385 1.28174 22.3602 0.354096C22.5141 0.157706 22.7371 0.0324473 22.9803 0.00584887C23.2235 -0.0207496 23.467 0.05349 23.6572 0.21225C23.8474 0.37101 23.9689 0.601299 23.9948 0.852501C24.0207 1.1037 23.949 1.35526 23.7955 1.55189C23.1451 2.38582 22.4224 3.15671 21.6364 3.85499L23.8722 7.85496Z" fill="#333333"/>
</g>
</svg>
