<svg width="96" height="96" viewBox="0 0 96 96" fill="none" xmlns="http://www.w3.org/2000/svg">
<g id="Group 20">
<g id="Group 18">
<path id="Rectangle 163" d="M25 40C25 27.2975 35.2975 17 48 17C60.7025 17 71 27.2975 71 40V79H25V40Z" stroke="#493B39" stroke-width="2"/>
<path id="Subtract" fill-rule="evenodd" clip-rule="evenodd" d="M43.1501 45.0993C43.0601 45.6394 42.5475 46 42 46C39.8093 46 37.8928 47.1741 36.8454 48.9274C36.5621 49.4015 35.9892 49.6625 35.4744 49.4623C34.9595 49.262 34.6991 48.6781 34.9625 48.1924C36.3163 45.6955 38.9601 44 42 44C42.1071 44 42.2138 44.0021 42.3199 44.0063C42.8723 44.028 43.241 44.554 43.1501 45.0993Z" fill="#493B39"/>
<path id="Vector 9" d="M66 52L54 32L42 52H31" stroke="#493B39" stroke-width="2" stroke-linecap="round" stroke-linejoin="round"/>
<path id="Subtract_2" fill-rule="evenodd" clip-rule="evenodd" d="M50.8349 47.3112C50.5753 46.8232 50.6944 46.2037 51.1543 45.8971C51.6136 45.591 52.2381 45.713 52.5055 46.1959C53.4578 47.9159 54 49.8947 54 52C54 58.6274 48.6274 64 42 64C35.3726 64 30 58.6274 30 52C30 51.6323 30.316 51.3509 30.6831 51.3713L31.461 51.4145C31.7671 51.4315 32 51.6934 32 52C32 57.5228 36.4772 62 42 62C47.5228 62 52 57.5228 52 52C52 50.3056 51.5786 48.7097 50.8349 47.3112ZM31.4438 48.8952C31.974 49.0512 32.5255 48.7449 32.7338 48.233C34.2215 44.5772 37.8098 42 42 42C42.3628 42 42.7211 42.0193 43.0739 42.057C43.6228 42.1156 44.1526 41.7749 44.2664 41.2348C44.3802 40.6938 44.0339 40.1587 43.4852 40.091C42.9986 40.0309 42.5029 40 42 40C36.9006 40 32.544 43.1808 30.8063 47.6666C30.6068 48.1816 30.914 48.7394 31.4438 48.8952Z" fill="#493B39"/>
</g>
</g>
</svg>
