<svg width="24" height="24" viewBox="0 0 24 24" fill="none" xmlns="http://www.w3.org/2000/svg">
<g id="home icon">
<path id="Union" fill-rule="evenodd" clip-rule="evenodd" d="M12.7897 0.295023C12.3379 -0.0983403 11.6653 -0.0983412 11.2136 0.295022L0.414363 9.69885C-0.422331 10.4274 0.0929555 11.8038 1.20241 11.8038H22.8008C23.9103 11.8038 24.4256 10.4274 23.5889 9.69885L12.7897 0.295023ZM3.24267 11.8041H20.7614V21.5991C20.7614 22.9246 19.6868 23.9991 18.3614 23.9991H5.64268C4.31719 23.9991 3.24267 22.9246 3.24267 21.5991V11.8041ZM9.98072 17.0686C9.98072 16.4058 10.518 15.8686 11.1807 15.8686H12.8235C13.4862 15.8686 14.0235 16.4058 14.0235 17.0686V23.9986H9.98072V17.0686Z" fill="#475A5D"/>
</g>
</svg>
