<svg width="202" height="202" viewBox="0 0 202 202" fill="none" xmlns="http://www.w3.org/2000/svg">
<g id="family chart">
<path id="Slice - 40 (40%)" d="M101.003 100.996V1C156.23 1 201 45.7699 201 100.996C201 133.006 185.676 163.081 159.78 181.895L101.003 100.996Z" fill="#493B39" stroke="white"/>
<path id="Slice - 30 (30%)" d="M101.003 100.997L159.78 181.896C115.101 214.357 52.5657 204.453 20.1043 159.774C13.9366 151.284 9.14346 141.877 5.90088 131.898L101.003 100.997Z" fill="#69534E" stroke="white"/>
<path id="Slice - 20 (20%)" d="M101.003 100.996L5.901 131.897C-7.48597 90.6963 7.17934 45.5612 42.2269 20.0977L101.003 100.996Z" fill="#998F8C" stroke="white"/>
<path id="Slice - 10 (10%)" d="M101.003 100.996L42.2269 20.0976C59.3111 7.68526 79.8862 1 101.003 1V100.996Z" fill="#D0D0D0" stroke="white"/>
</g>
</svg>
