<svg width="24" height="24" viewBox="0 0 24 24" fill="none" xmlns="http://www.w3.org/2000/svg">
<g id="real-time button">
<g id="Group 11">
<path id="Vector 9" d="M11.3998 6.59961C11.3998 6.59961 11.3998 13.1996 11.3998 13.4996C11.3998 13.7996 7.7998 15.5996 7.7998 15.5996" stroke="#493B39" stroke-width="1.8" stroke-linecap="round"/>
<path id="Polygon 2" d="M18.5666 11.8496L20.7824 15.0703L22.9983 11.8496H18.5666Z" fill="#493B39" stroke="#493B39" stroke-width="0.6"/>
<path id="Subtract" fill-rule="evenodd" clip-rule="evenodd" d="M17.5401 18.1096C15.9385 19.8918 13.6492 20.9997 11.1299 20.9997C6.3511 20.9997 2.39985 17.0135 2.39985 11.9997C2.39985 6.98591 6.3511 2.99971 11.1299 2.99971C15.6639 2.99971 19.453 6.58811 19.8292 11.2379L21.3025 14.7999C21.5356 13.9068 21.6599 12.9681 21.6599 11.9997C21.6599 6.03503 16.9454 1.19971 11.1299 1.19971C5.31429 1.19971 0.599854 6.03503 0.599854 11.9997C0.599854 17.9644 5.31429 22.7997 11.1299 22.7997C14.1387 22.7997 16.8527 21.5054 18.7717 19.4301L17.5401 18.1096ZM20.0647 17.7174C20.0675 17.7129 20.0702 17.7084 20.073 17.7039L20.0599 17.6975L20.0647 17.7174Z" fill="#493B39"/>
</g>
</g>
</svg>
