<svg width="24" height="24" viewBox="0 0 24 24" fill="none" xmlns="http://www.w3.org/2000/svg">
<path d="M11.4032 6.60059C11.4032 6.60059 11.4032 13.2006 11.4032 13.5006C11.4032 13.8006 7.80322 15.6006 7.80322 15.6006" stroke="#493B39" stroke-width="1.4" stroke-linecap="round"/>
<path d="M20.8059 14.965C20.9014 15.1028 21.1051 15.1028 21.2005 14.965L23.3403 11.8764C23.4506 11.7173 23.3367 11.4998 23.1431 11.4998H18.8634C18.6698 11.4998 18.5558 11.7173 18.6661 11.8764L20.8059 14.965Z" fill="#493B39"/>
<path d="M20.8059 14.965C20.9014 15.1028 21.1051 15.1028 21.2005 14.965L23.3403 11.8764C23.4506 11.7173 23.3367 11.4998 23.1431 11.4998H18.8634C18.6698 11.4998 18.5558 11.7173 18.6661 11.8764L20.8059 14.965Z" stroke="#493B39"/>
<path fill-rule="evenodd" clip-rule="evenodd" d="M17.8173 18.4034C16.1451 20.2508 13.7613 21.4002 11.133 21.4002C6.12387 21.4002 2.00303 17.2253 2.00303 12.0002C2.00303 6.77509 6.12387 2.6002 11.133 2.6002C16.1422 2.6002 20.263 6.77509 20.263 12.0002C20.263 12.091 20.2618 12.1814 20.2593 12.2715L21.3055 14.8009C21.5387 13.9077 21.663 12.9688 21.663 12.0002C21.663 6.03552 16.9486 1.2002 11.133 1.2002C5.31747 1.2002 0.603027 6.03552 0.603027 12.0002C0.603027 17.9649 5.31747 22.8002 11.133 22.8002C14.1419 22.8002 16.8561 21.5058 18.775 19.4303L17.8173 18.4034ZM20.068 17.7178C20.0707 17.7134 20.0733 17.7091 20.0759 17.7048L20.0634 17.6986L20.068 17.7178Z" fill="#493B39"/>
</svg>
