<svg width="24" height="24" viewBox="0 0 24 24" fill="none" xmlns="http://www.w3.org/2000/svg">
<path d="M11.3998 6.60059C11.3998 6.60059 11.3998 13.2006 11.3998 13.5006C11.3998 13.8006 7.7998 15.6006 7.7998 15.6006" stroke="#493B39" stroke-width="1.8" stroke-linecap="round"/>
<path d="M18.5661 11.8506L20.782 15.0713L22.9978 11.8506H18.5661Z" fill="#493B39" stroke="#493B39" stroke-width="0.6"/>
<path fill-rule="evenodd" clip-rule="evenodd" d="M17.5401 18.1098C15.9384 19.8922 13.649 21.0002 11.1296 21.0002C6.35085 21.0002 2.39961 17.014 2.39961 12.0002C2.39961 6.9864 6.35085 3.0002 11.1296 3.0002C15.664 3.0002 19.4534 6.58916 19.829 11.2395L21.3021 14.8009C21.5353 13.9077 21.6596 12.9688 21.6596 12.0002C21.6596 6.03552 16.9452 1.2002 11.1296 1.2002C5.31405 1.2002 0.599609 6.03552 0.599609 12.0002C0.599609 17.9649 5.31405 22.8002 11.1296 22.8002C14.1385 22.8002 16.8527 21.5058 18.7716 19.4303L17.5401 18.1098ZM20.0646 17.7178C20.0672 17.7134 20.0699 17.7091 20.0725 17.7048L20.06 17.6986L20.0646 17.7178Z" fill="#493B39"/>
</svg>
