<svg width="24" height="24" viewBox="0 0 24 24" fill="none" xmlns="http://www.w3.org/2000/svg">
<path fill-rule="evenodd" clip-rule="evenodd" d="M12.7898 0.295023C12.338 -0.0983402 11.6654 -0.0983412 11.2137 0.295022L0.414455 9.69885C-0.422239 10.4274 0.0930473 11.8038 1.2025 11.8038H22.8009C23.9104 11.8038 24.4257 10.4274 23.589 9.69885L12.7898 0.295023ZM3.24272 11.8041H20.7614V21.5991C20.7614 22.9246 19.6869 23.9991 18.3614 23.9991H5.64272C4.31724 23.9991 3.24272 22.9246 3.24272 21.5991V11.8041ZM9.98076 17.0686C9.98076 16.4058 10.518 15.8686 11.1808 15.8686H12.8235C13.4863 15.8686 14.0235 16.4058 14.0235 17.0686V23.9986H9.98076V17.0686Z" fill="#475A5D"/>
</svg>
