<svg width="24" height="24" viewBox="0 0 24 24" fill="none" xmlns="http://www.w3.org/2000/svg">
<path d="M6.68152 6.90439L14.0377 6.90439" stroke="#493B39" stroke-width="1.22604" stroke-linecap="round"/>
<path d="M17.7159 13.0343V3.22604C17.7159 2.54892 17.1669 2 16.4898 2H4.22945C3.55233 2 3.00342 2.54892 3.00342 3.22604V17.9385M3.00342 17.9385L7.90756 22.8426M3.00342 17.9385H6.68153C7.35865 17.9385 7.90756 18.4874 7.90756 19.1645V22.8426M7.90756 22.8426H11.5857" stroke="#493B39" stroke-width="1.22604" stroke-linecap="round"/>
<path d="M6.68164 10.582L14.0379 10.582" stroke="#493B39" stroke-width="1.22604" stroke-linecap="round"/>
<path d="M6.68152 14.2606H10.3596" stroke="#493B39" stroke-width="1.22604" stroke-linecap="round"/>
<path d="M15.2577 18.181L20.7891 12.8838C20.9928 12.6887 21.316 12.6957 21.5111 12.8994L22.9237 14.3744C23.1187 14.5781 23.1117 14.9013 22.9081 15.0963L17.3766 20.3936L15.2577 18.181Z" stroke="#493B39" stroke-width="1.02118"/>
<path d="M14.889 18.5333L14.1514 19.2396L13.2046 21.8879C13.1196 22.1256 13.3425 22.3583 13.5836 22.2837L16.2703 21.4522L17.0079 20.7459" stroke="#493B39" stroke-width="1.02118" stroke-linecap="round"/>
</svg>
