<svg width="24" height="24" viewBox="0 0 24 24" fill="none" xmlns="http://www.w3.org/2000/svg">
<mask id="path-1-inside-1_1005_2283" fill="white">
<path fill-rule="evenodd" clip-rule="evenodd" d="M12.7899 0.295023C12.3382 -0.0983403 11.6655 -0.0983412 11.2138 0.295022L0.414607 9.69885C-0.422087 10.4274 0.0931996 11.8038 1.20265 11.8038H3.24292V21.5987C3.24292 22.9242 4.31744 23.9987 5.64293 23.9987H18.3616C19.6871 23.9987 20.7616 22.9242 20.7616 21.5987V11.8038H22.8011C23.9105 11.8038 24.4258 10.4274 23.5891 9.69885L12.7899 0.295023ZM9.98096 16.5323C9.98096 15.8696 10.5182 15.3323 11.181 15.3323H12.8237C13.4865 15.3323 14.0237 15.8696 14.0237 16.5323V23.9981H9.98096V16.5323Z"/>
</mask>
<path d="M11.2138 0.295022L11.8705 1.04917V1.04917L11.2138 0.295022ZM12.7899 0.295023L12.1332 1.04917V1.04917L12.7899 0.295023ZM0.414607 9.69885L-0.242097 8.9447H-0.242097L0.414607 9.69885ZM3.24292 11.8038H4.24292V10.8038H3.24292V11.8038ZM20.7616 11.8038V10.8038H19.7616V11.8038H20.7616ZM23.5891 9.69885L24.2458 8.9447L23.5891 9.69885ZM14.0237 23.9981V24.9981H15.0237V23.9981H14.0237ZM9.98096 23.9981H8.98096V24.9981H9.98096V23.9981ZM11.8705 1.04917C11.9458 0.98361 12.0579 0.983609 12.1332 1.04917L13.4466 -0.459126C12.6184 -1.18029 11.3853 -1.18029 10.5571 -0.459127L11.8705 1.04917ZM1.07131 10.453L11.8705 1.04917L10.5571 -0.459127L-0.242097 8.9447L1.07131 10.453ZM1.20265 10.8038C1.14014 10.8038 1.10687 10.7869 1.08564 10.7713C1.05923 10.7519 1.03225 10.7191 1.01535 10.6739C0.998447 10.6288 0.997232 10.5863 1.00441 10.5544C1.01019 10.5287 1.02416 10.4941 1.07131 10.453L-0.242097 8.9447C-1.77604 10.2804 -0.831342 12.8038 1.20265 12.8038V10.8038ZM3.24292 10.8038H1.20265V12.8038H3.24292V10.8038ZM2.24292 11.8038V21.5987H4.24292V11.8038H2.24292ZM2.24292 21.5987C2.24292 23.4765 3.76516 24.9987 5.64293 24.9987V22.9987C4.86972 22.9987 4.24292 22.3719 4.24292 21.5987H2.24292ZM5.64293 24.9987H18.3616V22.9987H5.64293V24.9987ZM18.3616 24.9987C20.2394 24.9987 21.7616 23.4765 21.7616 21.5987H19.7616C19.7616 22.3719 19.1348 22.9987 18.3616 22.9987V24.9987ZM21.7616 21.5987V11.8038H19.7616V21.5987H21.7616ZM22.8011 10.8038H20.7616V12.8038H22.8011V10.8038ZM22.9324 10.453C22.9796 10.4941 22.9935 10.5287 22.9993 10.5544C23.0065 10.5863 23.0053 10.6288 22.9884 10.674C22.9715 10.7191 22.9445 10.7519 22.9181 10.7713C22.8969 10.7869 22.8636 10.8038 22.8011 10.8038V12.8038C24.8351 12.8038 25.7798 10.2804 24.2458 8.9447L22.9324 10.453ZM12.1332 1.04917L22.9324 10.453L24.2458 8.9447L13.4466 -0.459126L12.1332 1.04917ZM11.181 14.3323C9.96593 14.3323 8.98096 15.3173 8.98096 16.5323H10.981C10.981 16.4219 11.0705 16.3323 11.181 16.3323V14.3323ZM12.8237 14.3323H11.181V16.3323H12.8237V14.3323ZM15.0237 16.5323C15.0237 15.3173 14.0388 14.3323 12.8237 14.3323V16.3323C12.9342 16.3323 13.0237 16.4219 13.0237 16.5323H15.0237ZM15.0237 23.9981V16.5323H13.0237V23.9981H15.0237ZM9.98096 24.9981H14.0237V22.9981H9.98096V24.9981ZM8.98096 16.5323V23.9981H10.981V16.5323H8.98096Z" fill="#493B39" mask="url(#path-1-inside-1_1005_2283)"/>
</svg>
