<svg width="24" height="24" viewBox="0 0 24 24" fill="none" xmlns="http://www.w3.org/2000/svg">
<g id="&#235;&#156;&#172;&#235;&#136;&#136;">
<path id="Line 1" d="M1 9.62508C7 2.125 17 2.12497 23 9.62509" stroke="black" stroke-width="2" stroke-linecap="round"/>
<path id="Subtract" fill-rule="evenodd" clip-rule="evenodd" d="M12 20C14.7614 20 17 17.7614 17 15C17 12.2386 14.7614 10 12 10C9.23858 10 7 12.2386 7 15C7 17.7614 9.23858 20 12 20ZM12.0001 18.3333C13.841 18.3333 15.3334 16.8409 15.3334 15C15.3334 13.1591 13.841 11.6667 12.0001 11.6667C10.1591 11.6667 8.66675 13.1591 8.66675 15C8.66675 16.8409 10.1591 18.3333 12.0001 18.3333Z" fill="#333333"/>
</g>
</svg>
